<?xml version="1.0" encoding="UTF-8"?>
<!DOCTYPE svg PUBLIC "-//W3C//DTD SVG 1.1//EN" "http://www.w3.org/Graphics/SVG/1.1/DTD/svg11.dtd">
<svg xmlns="http://www.w3.org/2000/svg" version="1.1" width="168px" height="63px" style="shape-rendering:geometricPrecision; text-rendering:geometricPrecision; image-rendering:optimizeQuality; fill-rule:evenodd; clip-rule:evenodd" xmlns:xlink="http://www.w3.org/1999/xlink">
<g><path style="opacity:1" fill="#fdfdfd" d="M -0.5,-0.5 C 55.5,-0.5 111.5,-0.5 167.5,-0.5C 167.5,20.5 167.5,41.5 167.5,62.5C 111.5,62.5 55.5,62.5 -0.5,62.5C -0.5,41.5 -0.5,20.5 -0.5,-0.5 Z"/></g>
<g><path style="opacity:1" fill="#212121" d="M 39.5,21.5 C 38.7321,22.2625 38.2321,23.2625 38,24.5C 37.5005,30.8246 37.3338,37.1579 37.5,43.5C 35.725,39.6136 34.8916,35.2803 35,30.5C 33.8438,31.9928 33.0104,31.8261 32.5,30C 34.519,26.2875 36.3524,22.4542 38,18.5C 39.0386,19.2438 39.5386,20.2438 39.5,21.5 Z"/></g>
<g><path style="opacity:1" fill="#262626" d="M 51.5,30.5 C 51.0831,29.8761 50.4164,29.5427 49.5,29.5C 47.484,30.1776 45.484,30.8443 43.5,31.5C 43.1667,30.8333 42.8333,30.1667 42.5,29.5C 44.3117,29.2287 45.9783,28.562 47.5,27.5C 46.5629,25.3576 45.2296,25.0243 43.5,26.5C 42.1667,25.5 42.1667,24.5 43.5,23.5C 44.9418,22.1805 45.6085,20.5138 45.5,18.5C 47.9424,18.3537 48.6091,19.187 47.5,21C 50.5535,21.1786 53.5535,21.6786 56.5,22.5C 51.0897,26.0539 51.4231,28.5539 57.5,30C 55.6804,31.6885 53.6804,31.8552 51.5,30.5 Z"/></g>
<g><path style="opacity:1" fill="#a8a8a8" d="M 82.5,32.5 C 82.5,28.5 82.5,24.5 82.5,20.5C 78.1667,20.5 73.8333,20.5 69.5,20.5C 69.5,24.5 69.5,28.5 69.5,32.5C 68.8333,29.5 68.1667,26.5 67.5,23.5C 66.8478,22.2749 65.6811,21.6083 64,21.5C 62.3189,21.6083 61.1522,22.2749 60.5,23.5C 59.596,22.791 59.2627,21.791 59.5,20.5C 67.4864,19.901 75.4864,19.5676 83.5,19.5C 83.8182,24.0323 83.4849,28.3656 82.5,32.5 Z"/></g>
<g><path style="opacity:1" fill="#979797" d="M 113.5,20.5 C 121.316,19.5076 129.316,19.1743 137.5,19.5C 137.737,20.791 137.404,21.791 136.5,22.5C 129.24,20.5349 121.573,19.8682 113.5,20.5 Z"/></g>
<g><path style="opacity:1" fill="#1e1e1e" d="M 82.5,32.5 C 80.8333,32.5 79.1667,32.5 77.5,32.5C 77.5,33.5 77.5,34.5 77.5,35.5C 79.288,35.2148 80.9547,35.5481 82.5,36.5C 80.3449,37.0014 78.6782,38.0014 77.5,39.5C 79.8439,39.9397 81.8439,40.9397 83.5,42.5C 77.7945,42.8288 72.1278,42.4954 66.5,41.5C 69.0865,40.52 71.7531,40.1866 74.5,40.5C 74.5,39.5 74.5,38.5 74.5,37.5C 67.8333,36.8333 67.8333,36.1667 74.5,35.5C 74.5,34.5 74.5,33.5 74.5,32.5C 72.8333,32.5 71.1667,32.5 69.5,32.5C 69.5,28.5 69.5,24.5 69.5,20.5C 73.8333,20.5 78.1667,20.5 82.5,20.5C 82.5,24.5 82.5,28.5 82.5,32.5 Z"/></g>
<g><path style="opacity:1" fill="#1a1b1a" d="M 113.5,20.5 C 121.573,19.8682 129.24,20.5349 136.5,22.5C 128.427,23.1318 120.76,22.4651 113.5,20.5 Z"/></g>
<g><path style="opacity:1" fill="#262626" d="M 67.5,23.5 C 64.9325,25.2346 64.9325,27.2346 67.5,29.5C 64.8333,31.8333 64.8333,34.1667 67.5,36.5C 65.3295,38.0862 62.9962,39.4196 60.5,40.5C 60.1667,40 59.8333,39.5 59.5,39C 62.9394,36.1898 63.2727,33.0232 60.5,29.5C 63.0675,27.2346 63.0675,25.2346 60.5,23.5C 61.1522,22.2749 62.3189,21.6083 64,21.5C 65.6811,21.6083 66.8478,22.2749 67.5,23.5 Z"/></g>
<g><path style="opacity:1" fill="#5c5c5c" d="M 108.5,22.5 C 101.416,21.8745 94.7496,22.5411 88.5,24.5C 87.596,23.791 87.2627,22.791 87.5,21.5C 94.6866,21.1755 101.687,21.5088 108.5,22.5 Z"/></g>
<g><path style="opacity:1" fill="#f1f1f1" d="M 71.5,22.5 C 72.5,22.5 73.5,22.5 74.5,22.5C 74.5,23.5 74.5,24.5 74.5,25.5C 73.5,25.5 72.5,25.5 71.5,25.5C 71.5,24.5 71.5,23.5 71.5,22.5 Z"/></g>
<g><path style="opacity:1" fill="#232323" d="M 108.5,22.5 C 106.012,24.3878 103.012,25.0545 99.5,24.5C 99.5,29.1667 99.5,33.8333 99.5,38.5C 103.167,38.5 106.833,38.5 110.5,38.5C 110.5,39.5 110.5,40.5 110.5,41.5C 102.5,41.5 94.5,41.5 86.5,41.5C 86.5,40.5 86.5,39.5 86.5,38.5C 89.8333,38.5 93.1667,38.5 96.5,38.5C 96.5,33.8333 96.5,29.1667 96.5,24.5C 93.8333,24.5 91.1667,24.5 88.5,24.5C 94.7496,22.5411 101.416,21.8745 108.5,22.5 Z"/></g>
<g><path style="opacity:1" fill="#f2f2f2" d="M 47.5,24.5 C 48.6009,23.4017 49.9343,23.235 51.5,24C 50.3181,25.7683 48.9848,25.9349 47.5,24.5 Z"/></g>
<g><path style="opacity:1" fill="#bbbbbb" d="M 115.5,24.5 C 121.979,23.5093 128.646,23.176 135.5,23.5C 135.802,26.0593 135.468,28.3926 134.5,30.5C 134.5,28.5 134.5,26.5 134.5,24.5C 128.167,24.5 121.833,24.5 115.5,24.5 Z"/></g>
<g><path style="opacity:1" fill="#d6d6d6" d="M 77.5,22.5 C 78.5,22.5 79.5,22.5 80.5,22.5C 80.5,23.5 80.5,24.5 80.5,25.5C 79.5,25.5 78.5,25.5 77.5,25.5C 77.5,24.5 77.5,23.5 77.5,22.5 Z"/></g>
<g><path style="opacity:1" fill="#1f1f1f" d="M 115.5,24.5 C 121.833,24.5 128.167,24.5 134.5,24.5C 134.5,26.5 134.5,28.5 134.5,30.5C 132.076,30.1924 129.743,30.5258 127.5,31.5C 130.5,32.1667 133.5,32.8333 136.5,33.5C 132.541,34.3265 128.541,34.8265 124.5,35C 127.482,35.498 130.482,35.6646 133.5,35.5C 133.662,37.5273 133.495,39.5273 133,41.5C 131.445,43.5152 129.611,43.8485 127.5,42.5C 130.342,41.9955 131.675,40.3289 131.5,37.5C 128.753,37.1866 126.086,37.52 123.5,38.5C 122.141,40.6922 120.308,42.3589 118,43.5C 117.5,43 117,42.5 116.5,42C 119.592,40.5768 121.592,38.2435 122.5,35C 120.866,34.5065 119.199,34.3398 117.5,34.5C 117.287,37.475 116.287,40.1416 114.5,42.5C 113.692,42.1924 113.025,41.6924 112.5,41C 115.038,35.8267 116.038,30.3267 115.5,24.5 Z"/></g>
<g><path style="opacity:1" fill="#a0a0a0" d="M 39.5,21.5 C 40.6715,22.3446 42.0048,23.0113 43.5,23.5C 42.1667,24.5 42.1667,25.5 43.5,26.5C 42.596,27.209 42.2627,28.209 42.5,29.5C 42.8333,30.1667 43.1667,30.8333 43.5,31.5C 42.6618,31.8417 42.3284,32.5084 42.5,33.5C 42.5,33.8333 42.5,34.1667 42.5,34.5C 42.7845,36.4147 42.4511,38.0813 41.5,39.5C 40.8333,18.1667 40.1667,18.1667 39.5,39.5C 38.8333,40.8333 38.1667,42.1667 37.5,43.5C 37.3338,37.1579 37.5005,30.8246 38,24.5C 38.2321,23.2625 38.7321,22.2625 39.5,21.5 Z"/></g>
<g><path style="opacity:1" fill="#1a1b1a" d="M 41.5,39.5 C 40.8333,39.5 40.1667,39.5 39.5,39.5C 40.1667,18.1667 40.8333,18.1667 41.5,39.5 Z"/></g>
<g><path style="opacity:1" fill="#dedede" d="M 42.5,29.5 C 42.2627,28.209 42.596,27.209 43.5,26.5C 45.2296,25.0243 46.5629,25.3576 47.5,27.5C 45.9783,28.562 44.3117,29.2287 42.5,29.5 Z"/></g>
<g><path style="opacity:1" fill="#f1f1f1" d="M 71.5,27.5 C 72.5,27.5 73.5,27.5 74.5,27.5C 74.5,28.5 74.5,29.5 74.5,30.5C 73.5,30.5 72.5,30.5 71.5,30.5C 71.5,29.5 71.5,28.5 71.5,27.5 Z"/></g>
<g><path style="opacity:1" fill="#d7d7d7" d="M 118.5,26.5 C 123.214,26.1734 127.88,26.5067 132.5,27.5C 130.167,27.8333 127.833,28.1667 125.5,28.5C 122.731,28.4714 120.397,27.8048 118.5,26.5 Z"/></g>
<g><path style="opacity:1" fill="#cccccc" d="M 51.5,30.5 C 51.5,31.1667 51.5,31.8333 51.5,32.5C 50.1979,34.8218 48.1979,36.1551 45.5,36.5C 45.5,36.1667 45.5,35.8333 45.5,35.5C 46.8484,34.3994 48.3484,33.3994 50,32.5C 50.6877,31.6683 50.521,31.0016 49.5,30.5C 47.4229,32.0818 45.0896,33.0818 42.5,33.5C 42.3284,32.5084 42.6618,31.8417 43.5,31.5C 45.484,30.8443 47.484,30.1776 49.5,29.5C 50.4164,29.5427 51.0831,29.8761 51.5,30.5 Z"/></g>
<g><path style="opacity:1" fill="#d6d6d6" d="M 77.5,27.5 C 78.5,27.5 79.5,27.5 80.5,27.5C 80.5,28.5 80.5,29.5 80.5,30.5C 79.5,30.5 78.5,30.5 77.5,30.5C 77.5,29.5 77.5,28.5 77.5,27.5 Z"/></g>
<g><path style="opacity:1" fill="#2e2e2e" d="M 45.5,35.5 C 44.391,35.4431 43.391,35.1098 42.5,34.5C 42.5,34.1667 42.5,33.8333 42.5,33.5C 45.0896,33.0818 47.4229,32.0818 49.5,30.5C 50.521,31.0016 50.6877,31.6683 50,32.5C 48.3484,33.3994 46.8484,34.3994 45.5,35.5 Z"/></g>
<g><path style="opacity:1" fill="#dadada" d="M 118.5,30.5 C 120.604,30.2011 122.604,30.5344 124.5,31.5C 123.5,31.8333 122.5,32.1667 121.5,32.5C 119.97,32.3601 118.97,31.6935 118.5,30.5 Z"/></g>
<g><path style="opacity:1" fill="#2d2d2d" d="M 51.5,32.5 C 53.0269,32.427 54.0269,33.0937 54.5,34.5C 51.6649,36.0817 48.6649,37.415 45.5,38.5C 42.9172,37.7582 42.9172,37.0915 45.5,36.5C 48.1979,36.1551 50.1979,34.8218 51.5,32.5 Z"/></g>
<g><path style="opacity:1" fill="#2e2e2e" d="M 54.5,34.5 C 57.106,35.8499 57.106,37.3499 54.5,39C 51.1488,40.9277 47.6488,42.4277 44,43.5C 43.3076,42.9747 42.8076,42.3081 42.5,41.5C 47.4742,40.6848 51.4742,38.3515 54.5,34.5 Z"/></g>
<g><path style="opacity:1" fill="#8d8d8d" d="M 77.5,39.5 C 79.8333,39.5 82.1667,39.5 84.5,39.5C 84.7373,40.791 84.404,41.791 83.5,42.5C 81.8439,40.9397 79.8439,39.9397 77.5,39.5 Z"/></g>
</svg>
